<svg preserveAspectRatio="none" width="100%" height="100%" overflow="visible" style="display: block;" viewBox="0 0 60 60" fill="none" xmlns="http://www.w3.org/2000/svg">
<g id="icon-digital-tool-wrench">
<path id="Vector" d="M32.28 24.84C33.24 21.12 32.4 17.04 30.12 13.92C26.64 9.48 21.36 7.92 16.56 9.12C15.36 9.36 15.12 10.92 15.96 11.76L19.32 14.52C21.48 16.32 21.72 19.56 19.92 21.72C18.12 23.88 14.88 24.12 12.72 22.32L9.36 19.56C8.52 18.84 6.96 19.32 6.84 20.64C6.48 24.6 8.04 28.8 11.28 31.68C15.12 34.92 20.4 35.52 24.84 33.72L42.6 49.8C45.36 52.32 49.56 51.96 51.84 49.2C54.24 46.44 53.76 42.24 50.88 39.96L32.28 24.96V24.84Z" fill="var(--fill-0, #002F6B)"/>
</g>
</svg>
